<?xml version="1.0" encoding="UTF-8"?>
<svg xmlns="http://www.w3.org/2000/svg" xmlns:xlink="http://www.w3.org/1999/xlink" viewBox="0 0 512 512" width="16px" height="16px">
<g id="surface48193679">
<path style=" stroke:none;fill-rule:nonzero;fill:rgb(100%,100%,100%);fill-opacity:1;" d="M 256.375 64 C 244.9375 64 233.5 64.125 222.0625 64.4375 C 163.1875 66 103.5 76.75 48 96 L 64 112 C 111 95.0625 163.9375 85.3125 222.75 83.5 C 245.0625 82.8125 267.6875 82.8125 290 83.5 C 348.8125 85.3125 401 95.0625 448 112 L 464 96 C 408.5 76.75 349.5625 66 290.6875 64.4375 C 279.25 64.125 267.8125 64 256.375 64 Z M 207.1875 111.125 C 168.6875 110.6875 116.3125 112.9375 80 128 C 86.6875 141 112.0625 155.875 128 160 C 128.875 134.4375 174.125 128 208 128 L 256 464 L 304 128 C 337.8125 128 383.0625 134.4375 384 160 C 400 155.875 425.3125 141 432 128 C 383.5625 107.875 306.6875 110.625 272 112 L 256 128 L 240 112 C 231.3125 111.6875 220 111.25 207.1875 111.125 Z M 207.1875 111.125 "/>
</g>
</svg>
