<svg id="Capa_1" enable-background="new 0 0 512 512" height="512" viewBox="0 0 512 512" width="512" xmlns="http://www.w3.org/2000/svg"><g><g><g><path d="m114.102 141.735h-78.718v-48.045c0-7.795 6.319-14.113 14.113-14.113h50.492c7.795 0 14.113 6.319 14.113 14.113z" fill="#60a0f7"/><g><path d="m271.257 39.667h-77.387c-9.486 0-18.104 5.522-22.069 14.14l-38.516 83.727h198.557l-38.516-83.727c-3.965-8.618-12.583-14.14-22.069-14.14z" fill="#c9e0fd"/><path d="m340.199 53.807c-3.964-8.618-12.583-14.14-22.069-14.14h-56.66c9.486 0 18.104 5.522 22.069 14.14l38.516 83.727h56.66z" fill="#9bc4f9"/><g fill="#eaf2ff"><path d="m428.229 472.333c19.24 0 34.837-15.597 34.837-34.837v-41.6h-453.794l-9.272 9.033v32.566c0 19.24 15.597 34.837 34.837 34.837z"/><path d="m463.066 145.493c0-19.239-15.596-34.836-34.835-34.837h-393.394c-19.24 0-34.837 15.597-34.837 34.837v32.566l9.272 9.034h453.795v-41.6z"/></g><path d="m477.163 110.656h-56.66c19.24 0 34.837 15.597 34.837 34.837v292.003c0 19.24-15.597 34.837-34.837 34.837h56.66c19.24 0 34.837-15.597 34.837-34.837v-292.003c0-19.24-15.597-34.837-34.837-34.837z" fill="#c9e0fd"/><path d="m0 178.059h463.066v226.87h-463.066z" fill="#e28424"/><path d="m455.34 178.059h56.66v226.87h-56.66z" fill="#df751c"/></g><g><circle cx="256" cy="299.148" fill="#c9e0fd" r="141.898"/><circle cx="256" cy="299.148" fill="#9bc4f9" r="86.344"/><path d="m256 212.804c-9.793 0-19.195 1.654-27.97 4.658 33.953 11.624 58.373 43.793 58.373 81.686s-24.42 70.061-58.373 81.686c8.775 3.004 18.177 4.658 27.97 4.658 47.686 0 86.344-38.657 86.344-86.344s-38.658-86.344-86.344-86.344z" fill="#7fb2f9"/></g></g><g><path d="m452.765 151.952h-50.822c-4.268 0-7.726-3.459-7.726-7.726 0-4.268 3.459-7.726 7.726-7.726h50.822c4.268 0 7.726 3.459 7.726 7.726s-3.459 7.726-7.726 7.726z" fill="#7fb2f9"/></g></g></g></svg>